<svg width="411" height="207" xmlns="http://www.w3.org/2000/svg" xmlns:xlink="http://www.w3.org/1999/xlink" xml:space="preserve" overflow="hidden"><defs><clipPath id="clip0"><rect x="0" y="0" width="411" height="207"/></clipPath><clipPath id="clip1"><path d="M111.532 114.941 102.75 117.45 100.994 111.305 109.776 108.796Z" fill-rule="evenodd" clip-rule="evenodd"/></clipPath><clipPath id="clip2"><path d="M289.4 109.381 298.356 111.172 297.102 117.439 288.146 115.648Z" fill-rule="evenodd" clip-rule="evenodd"/></clipPath></defs><g clip-path="url(#clip0)"><path d="M0 0 410.855 0 410.855 228.253 0 228.253Z" fill="#FFFFFF" transform="scale(1.00035 1)"/><text font-family="Arial,Arial_MSFontService,sans-serif" font-weight="700" font-size="16" transform="matrix(0.456667 0 0 0.456505 114.167 219)">Task Allocation System Architecture</text><path d="M0 0 91.301 0 91.301 68.4758 0 68.4758Z" stroke="#2196F3" stroke-width="0.91301" fill="#E6F3FF" transform="matrix(1.00035 0 0 1 22.8333 22.8253)"/><text font-family="Arial,Arial_MSFontService,sans-serif" font-weight="700" font-size="14" transform="matrix(0.456667 0 0 0.456505 36.5333 37)">Dynamic Programming</text><path d="M9.1301 22.8253 82.1709 22.8253 82.1709 41.0855 9.1301 41.0855Z" stroke="#1976D2" stroke-width="0.456505" fill="#BBDEFB" transform="matrix(1.00035 0 0 1 22.8333 22.8253)"/><text font-family="Arial,Arial_MSFontService,sans-serif" font-weight="400" font-size="12" transform="matrix(0.456667 0 0 0.456505 43.3833 57)">Success Probability</text><path d="M9.1301 45.6505 82.1709 45.6505 82.1709 63.9107 9.1301 63.9107Z" stroke="#1976D2" stroke-width="0.456505" fill="#BBDEFB" transform="matrix(1.00035 0 0 1 22.8333 22.8253)"/><text font-family="Arial,Arial_MSFontService,sans-serif" font-weight="400" font-size="12" transform="matrix(0.456667 0 0 0.456505 38.8167 80)">Resource Utilization</text><path d="M0 0 91.301 0 91.301 68.4758 0 68.4758Z" stroke="#FF9800" stroke-width="0.91301" fill="#FFF3E6" transform="matrix(1.00035 0 0 1 137 22.8253)"/><text font-family="Arial,Arial_MSFontService,sans-serif" font-weight="700" font-size="14" transform="matrix(0.456667 0 0 0.456505 152.983 37)">Monte Carlo Simulation</text><path d="M9.1301 22.8253 82.1709 22.8253 82.1709 41.0855 9.1301 41.0855Z" stroke="#F57C00" stroke-width="0.456505" fill="#FFE0B2" transform="matrix(1.00035 0 0 1 137 22.8253)"/><text font-family="Arial,Arial_MSFontService,sans-serif" font-weight="400" font-size="12" transform="matrix(0.456667 0 0 0.456505 157.55 57)">Solution Robustness</text><path d="M9.1301 45.6505 82.1709 45.6505 82.1709 63.9107 9.1301 63.9107Z" stroke="#F57C00" stroke-width="0.456505" fill="#FFE0B2" transform="matrix(1.00035 0 0 1 137 22.8253)"/><text font-family="Arial,Arial_MSFontService,sans-serif" font-weight="400" font-size="12" transform="matrix(0.456667 0 0 0.456505 159.833 80)">Uncertainty Analysis</text><path d="M0 0 159.777 0 159.777 82.1709 0 82.1709Z" stroke="#4CAF50" stroke-width="0.91301" fill="#E8F5E9" transform="matrix(1.00035 0 0 1 22.8333 114.126)"/><text font-family="Arial,Arial_MSFontService,sans-serif" font-weight="700" font-size="14" transform="matrix(0.456667 0 0 0.456505 82.2 128)">Q</text><text font-family="Arial,Arial_MSFontService,sans-serif" font-weight="700" font-size="14" transform="matrix(0.456667 0 0 0.456505 87.1729 128)">-</text><text font-family="Arial,Arial_MSFontService,sans-serif" font-weight="700" font-size="14" transform="matrix(0.456667 0 0 0.456505 89.302 128)">Learning</text><path d="M9.1301 22.8253 150.647 22.8253 150.647 73.0408 9.1301 73.0408Z" stroke="#388E3C" stroke-width="0.456505" fill="#C8E6C9" transform="matrix(1.00035 0 0 1 22.8333 114.126)"/><text font-family="Arial,Arial_MSFontService,sans-serif" font-weight="700" font-size="12" transform="matrix(0.456667 0 0 0.456505 86.7667 146)">Q</text><text font-family="Arial,Arial_MSFontService,sans-serif" font-weight="700" font-size="12" transform="matrix(0.456667 0 0 0.456505 91.0292 146)">-</text><text font-family="Arial,Arial_MSFontService,sans-serif" font-weight="700" font-size="12" transform="matrix(0.456667 0 0 0.456505 92.8541 146)">Table</text><path d="M18.2602 36.5204 141.517 36.5204" stroke="#388E3C" stroke-width="0.456505" fill="none" transform="matrix(1.00035 0 0 1 22.8333 114.126)"/><path d="M18.2602 45.6505 141.517 45.6505" stroke="#388E3C" stroke-width="0.456505" fill="none" transform="matrix(1.00035 0 0 1 22.8333 114.126)"/><path d="M18.2602 54.7806 141.517 54.7806" stroke="#388E3C" stroke-width="0.456505" fill="none" transform="matrix(1.00035 0 0 1 22.8333 114.126)"/><path d="M45.6505 36.5204 45.6505 63.9107" stroke="#388E3C" stroke-width="0.456505" fill="none" transform="matrix(1.00035 0 0 1 22.8333 114.126)"/><path d="M77.6059 36.5204 77.6059 63.9107" stroke="#388E3C" stroke-width="0.456505" fill="none" transform="matrix(1.00035 0 0 1 22.8333 114.126)"/><path d="M109.561 36.5204 109.561 63.9107" stroke="#388E3C" stroke-width="0.456505" fill="none" transform="matrix(1.00035 0 0 1 22.8333 114.126)"/><text font-family="Arial,Arial_MSFontService,sans-serif" font-weight="400" font-size="10" transform="matrix(0.456667 0 0 0.456505 43.3833 157)">State</text><text font-family="Arial,Arial_MSFontService,sans-serif" font-weight="400" font-size="10" transform="matrix(0.456667 0 0 0.456505 77.6333 157)">Action</text><text font-family="Arial,Arial_MSFontService,sans-serif" font-weight="400" font-size="10" transform="matrix(0.456667 0 0 0.456505 109.6 157)">Reward</text><text font-family="Arial,Arial_MSFontService,sans-serif" font-weight="400" font-size="10" transform="matrix(0.456667 0 0 0.456505 141.567 157)">Q</text><text font-family="Arial,Arial_MSFontService,sans-serif" font-weight="400" font-size="10" transform="matrix(0.456667 0 0 0.456505 145.119 157)">-</text><text font-family="Arial,Arial_MSFontService,sans-serif" font-weight="400" font-size="10" transform="matrix(0.456667 0 0 0.456505 146.639 157)">Value</text><path d="M0 0 182.602 0 182.602 82.1709 0 82.1709Z" stroke="#9C27B0" stroke-width="0.91301" fill="#F3E5F5" transform="matrix(1.00035 0 0 1 205.5 114.126)"/><text font-family="Arial,Arial_MSFontService,sans-serif" font-weight="700" font-size="14" transform="matrix(0.456667 0 0 0.456505 274 128)">Deep Q</text><text font-family="Arial,Arial_MSFontService,sans-serif" font-weight="700" font-size="14" transform="matrix(0.456667 0 0 0.456505 296.383 128)">-</text><text font-family="Arial,Arial_MSFontService,sans-serif" font-weight="700" font-size="14" transform="matrix(0.456667 0 0 0.456505 298.512 128)">Network </text><text font-family="Arial,Arial_MSFontService,sans-serif" font-weight="700" font-size="14" transform="matrix(0.456667 0 0 0.456505 325.512 128)">(</text><text font-family="Arial,Arial_MSFontService,sans-serif" font-weight="700" font-size="14" transform="matrix(0.456667 0 0 0.456505 327.641 128)">DQN</text><text font-family="Arial,Arial_MSFontService,sans-serif" font-weight="700" font-size="14" transform="matrix(0.456667 0 0 0.456505 341.848 128)">)</text><path d="M0 0 27.3903 0 27.3903 45.6505 0 45.6505Z" stroke="#7B1FA2" stroke-width="0.456505" fill="#E1BEE7" transform="matrix(1.00035 0 0 1 228.333 136.952)"/><path d="M15.5212 11.4126C15.5212 12.4211 14.7036 13.2387 13.6952 13.2387 12.6867 13.2387 11.8691 12.4211 11.8691 11.4126 11.8691 10.4041 12.6867 9.58661 13.6952 9.58661 14.7036 9.58661 15.5212 10.4041 15.5212 11.4126Z" fill="#4A148C" transform="matrix(1.00035 0 0 1 228.333 136.952)"/><path d="M15.5212 22.8253C15.5212 23.8337 14.7036 24.6513 13.6952 24.6513 12.6867 24.6513 11.8691 23.8337 11.8691 22.8253 11.8691 21.8168 12.6867 20.9992 13.6952 20.9992 14.7036 20.9992 15.5212 21.8168 15.5212 22.8253Z" fill="#4A148C" transform="matrix(1.00035 0 0 1 228.333 136.952)"/><path d="M15.5212 34.2379C15.5212 35.2464 14.7036 36.0639 13.6952 36.0639 12.6867 36.0639 11.8691 35.2464 11.8691 34.2379 11.8691 33.2294 12.6867 32.4119 13.6952 32.4119 14.7036 32.4119 15.5212 33.2294 15.5212 34.2379Z" fill="#4A148C" transform="matrix(1.00035 0 0 1 228.333 136.952)"/><text font-family="Arial,Arial_MSFontService,sans-serif" font-weight="400" font-size="10" transform="matrix(0.456667 0 0 0.456505 235.183 187)">Input</text><path d="M54.7806 0 82.1709 0 82.1709 45.6505 54.7806 45.6505Z" stroke="#7B1FA2" stroke-width="0.456505" fill="#E1BEE7" transform="matrix(1.00035 0 0 1 228.333 136.952)"/><path d="M70.3018 11.4126C70.3018 12.4211 69.4843 13.2387 68.4758 13.2387 67.4673 13.2387 66.6498 12.4211 66.6498 11.4126 66.6498 10.4041 67.4673 9.58661 68.4758 9.58661 69.4843 9.58661 70.3018 10.4041 70.3018 11.4126Z" fill="#4A148C" transform="matrix(1.00035 0 0 1 228.333 136.952)"/><path d="M70.3018 22.8253C70.3018 23.8337 69.4843 24.6513 68.4758 24.6513 67.4673 24.6513 66.6498 23.8337 66.6498 22.8253 66.6498 21.8168 67.4673 20.9992 68.4758 20.9992 69.4843 20.9992 70.3018 21.8168 70.3018 22.8253Z" fill="#4A148C" transform="matrix(1.00035 0 0 1 228.333 136.952)"/><path d="M70.3018 34.2379C70.3018 35.2464 69.4843 36.0639 68.4758 36.0639 67.4673 36.0639 66.6498 35.2464 66.6498 34.2379 66.6498 33.2294 67.4673 32.4119 68.4758 32.4119 69.4843 32.4119 70.3018 33.2294 70.3018 34.2379Z" fill="#4A148C" transform="matrix(1.00035 0 0 1 228.333 136.952)"/><text font-family="Arial,Arial_MSFontService,sans-serif" font-weight="400" font-size="10" transform="matrix(0.456667 0 0 0.456505 287.7 187)">Hidden</text><path d="M109.561 0 136.952 0 136.952 45.6505 109.561 45.6505Z" stroke="#7B1FA2" stroke-width="0.456505" fill="#E1BEE7" transform="matrix(1.00035 0 0 1 228.333 136.952)"/><path d="M125.082 11.4126C125.082 12.4211 124.265 13.2387 123.256 13.2387 122.248 13.2387 121.43 12.4211 121.43 11.4126 121.43 10.4041 122.248 9.58661 123.256 9.58661 124.265 9.58661 125.082 10.4041 125.082 11.4126Z" fill="#4A148C" transform="matrix(1.00035 0 0 1 228.333 136.952)"/><path d="M125.082 22.8253C125.082 23.8337 124.265 24.6513 123.256 24.6513 122.248 24.6513 121.43 23.8337 121.43 22.8253 121.43 21.8168 122.248 20.9992 123.256 20.9992 124.265 20.9992 125.082 21.8168 125.082 22.8253Z" fill="#4A148C" transform="matrix(1.00035 0 0 1 228.333 136.952)"/><path d="M125.082 34.2379C125.082 35.2464 124.265 36.0639 123.256 36.0639 122.248 36.0639 121.43 35.2464 121.43 34.2379 121.43 33.2294 122.248 32.4119 123.256 32.4119 124.265 32.4119 125.082 33.2294 125.082 34.2379Z" fill="#4A148C" transform="matrix(1.00035 0 0 1 228.333 136.952)"/><text font-family="Arial,Arial_MSFontService,sans-serif" font-weight="400" font-size="10" transform="matrix(0.456667 0 0 0.456505 340.217 187)">Output</text><path d="M15.5212 11.4126 66.6498 11.4126" stroke="#7B1FA2" stroke-width="0.228253" fill="none" transform="matrix(1.00035 0 0 1 228.333 136.952)"/><path d="M15.5212 11.4126 66.6498 22.8253" stroke="#7B1FA2" stroke-width="0.228253" transform="matrix(1.00035 0 0 1 228.333 136.952)"/><path d="M15.5212 22.8253 66.6498 11.4126" stroke="#7B1FA2" stroke-width="0.228253" transform="matrix(1.00035 0 0 1 228.333 136.952)"/><path d="M15.5212 22.8253 66.6498 22.8253" stroke="#7B1FA2" stroke-width="0.228253" fill="none" transform="matrix(1.00035 0 0 1 228.333 136.952)"/><path d="M70.3018 11.4126 121.43 11.4126" stroke="#7B1FA2" stroke-width="0.228253" fill="none" transform="matrix(1.00035 0 0 1 228.333 136.952)"/><path d="M70.3018 11.4126 121.43 22.8253" stroke="#7B1FA2" stroke-width="0.228253" transform="matrix(1.00035 0 0 1 228.333 136.952)"/><path d="M70.3018 22.8253 121.43 11.4126" stroke="#7B1FA2" stroke-width="0.228253" transform="matrix(1.00035 0 0 1 228.333 136.952)"/><path d="M70.3018 22.8253 121.43 22.8253" stroke="#7B1FA2" stroke-width="0.228253" fill="none" transform="matrix(1.00035 0 0 1 228.333 136.952)"/><path d="M114.126 57.0632 136.952 57.0632" stroke="#666666" stroke-width="0.91301" fill="none" transform="scale(1.00035 1)"/><g><path d="M0 0 9.1301 3.19554 0 6.39107Z" fill="#666666" transform="matrix(1.00035 0 0 1 128.78 53.8676)"/></g><path d="M182.602 91.301 102.714 114.126" stroke="#666666" stroke-width="0.91301" transform="scale(1.00035 1)"/><g clip-path="url(#clip1)"><path d="M0 0 9.13035 3.19562 0 6.39124Z" fill="#666666" transform="matrix(-0.961838 0.274714 -0.274811 -0.961498 111.532 114.941)"/></g><path d="M182.602 91.301 296.728 114.126" stroke="#666666" stroke-width="0.91301" transform="scale(1.00035 1)"/><g clip-path="url(#clip2)"><path d="M0 0 9.13023 3.19558 0 6.39116Z" fill="#666666" transform="matrix(0.980914 0.196113 -0.196183 0.980567 289.4 109.381)"/></g></g></svg>